<svg xmlns="http://www.w3.org/2000/svg" xmlns:xlink="http://www.w3.org/1999/xlink" width="142.695" height="45.487" viewBox="0 0 142.695 45.487">
  <defs>
    <linearGradient id="linear-gradient" x1="-0.011" y1="0.5" x2="0.989" y2="0.5" gradientUnits="objectBoundingBox">
      <stop offset="0.049" stop-color="#f9bf4b"/>
      <stop offset="0.61" stop-color="#fd5918"/>
    </linearGradient>
    <linearGradient id="linear-gradient-2" y1="0.5" x2="1.329" y2="0.5" gradientUnits="objectBoundingBox">
      <stop offset="0.313" stop-color="#f9bf4b"/>
      <stop offset="0.794" stop-color="#fd5918"/>
    </linearGradient>
  </defs>
  <g id="Group_2356" data-name="Group 2356" transform="translate(-403.064 -580.5)">
    <path id="Path_4728" data-name="Path 4728" d="M422.676,613v-6.487l-13.1-6.487V593.5l13.1-6.51,19.427,9.742v-6.464L422.665,580.5l-19.6,9.789v12.952Z" transform="translate(0 0)" fill="url(#linear-gradient)"/>
    <path id="Path_4729" data-name="Path 4729" d="M422.63,694.33v6.487l12.963,6.461v6.533l-13.1,6.51-19.427-9.742v6.464l19.437,9.766,19.6-9.789V704.068Z" transform="translate(0 -100.821)" fill="#231f20"/>
    <circle id="Ellipse_414" data-name="Ellipse 414" cx="5.339" cy="5.339" r="5.339" transform="translate(417.352 597.902)" fill="#fff"/>
    <circle id="Ellipse_415" data-name="Ellipse 415" cx="4.719" cy="4.719" r="4.719" transform="translate(417.973 598.522)" fill="url(#linear-gradient-2)"/>
    <path id="Path_4730" data-name="Path 4730" d="M538.185,738.2a4.719,4.719,0,0,0,0,9.436Z" transform="translate(-115.547 -139.68)" fill="#231f20"/>
    <g id="Group_2356-2" data-name="Group 2356" transform="translate(452.662 588.725)">
      <path id="Path_4731" data-name="Path 4731" d="M837.061,718.205h3.89a1.843,1.843,0,0,0,.61,1.632,4.7,4.7,0,0,0,2.39.412,6.428,6.428,0,0,0,2.077-.231.81.81,0,0,0,.594-.791.91.91,0,0,0-.4-.758,11.7,11.7,0,0,0-2.011-.956l-3.066-1.286a8.4,8.4,0,0,1-2.835-1.813,4.053,4.053,0,0,1-.923-2.868,4.233,4.233,0,0,1,1.632-3.643q1.632-1.2,5.291-1.2,6.362,0,6.363,5.7h-3.89a1.889,1.889,0,0,0-.544-1.516,3.176,3.176,0,0,0-1.995-.462,6.252,6.252,0,0,0-2.077.231.788.788,0,0,0-.2,1.418,6.184,6.184,0,0,0,1.319.626l3.429,1.351a8.15,8.15,0,0,1,3.132,1.912,4.345,4.345,0,0,1,.989,3.033,4.417,4.417,0,0,1-1.6,3.774q-1.6,1.2-5.291,1.2t-5.291-1.385A5.5,5.5,0,0,1,837.061,718.205Z" transform="translate(-837.061 -700.502)" fill="#231f20"/>
      <path id="Path_4732" data-name="Path 4732" d="M972.926,730.172V713.92q0-3.691,2.159-5.456a8.709,8.709,0,0,1,5.687-1.764q7.879,0,7.879,7.22v2.637a7.848,7.848,0,0,1-1.764,5.489,6.642,6.642,0,0,1-5.159,1.929,5.236,5.236,0,0,1-4.516-1.879v8.077Zm11.406-13.516v-2.637a3.673,3.673,0,0,0-.692-2.506,3.876,3.876,0,0,0-2.835-.758,3.955,3.955,0,0,0-2.852.775,3.512,3.512,0,0,0-.742,2.489v2.637a3.51,3.51,0,0,0,.742,2.489,3.954,3.954,0,0,0,2.852.775,3.825,3.825,0,0,0,2.818-.775A3.621,3.621,0,0,0,984.332,716.656Z" transform="translate(-957.399 -700.502)" fill="#231f20"/>
      <path id="Path_4733" data-name="Path 4733" d="M1131.859,713.029v10.549h-4.319V712.7a5.623,5.623,0,0,1,1.747-4.467,7.53,7.53,0,0,1,5.11-1.533,7.9,7.9,0,0,1,2.044.264v4.055a7.436,7.436,0,0,0-2.044-.264,2.862,2.862,0,0,0-2.027.527A2.458,2.458,0,0,0,1131.859,713.029Z" transform="translate(-1094.343 -700.502)" fill="#231f20"/>
      <path id="Path_4734" data-name="Path 4734" d="M1222.279,723.974q-4.023,0-5.967-1.813t-1.945-5.505v-2.637a7.062,7.062,0,0,1,2.027-5.423,8.309,8.309,0,0,1,5.885-1.9q4.021,0,5.934,1.813t1.912,5.506v2.637a7.114,7.114,0,0,1-1.995,5.439A8.23,8.23,0,0,1,1222.279,723.974Zm3.527-7.318v-2.637a3.622,3.622,0,0,0-.709-2.489,3.827,3.827,0,0,0-2.819-.775,3.955,3.955,0,0,0-2.852.775,3.512,3.512,0,0,0-.742,2.489v2.637a3.511,3.511,0,0,0,.742,2.489,3.954,3.954,0,0,0,2.852.775,3.826,3.826,0,0,0,2.819-.775A3.62,3.62,0,0,0,1225.806,716.656Z" transform="translate(-1171.248 -700.502)" fill="#231f20"/>
      <path id="Path_4735" data-name="Path 4735" d="M1369.271,668.72V652.468h4.286v8.077a5.236,5.236,0,0,1,4.516-1.879,6.643,6.643,0,0,1,5.159,1.928,7.847,7.847,0,0,1,1.764,5.489v2.637q0,7.22-7.879,7.22a8.705,8.705,0,0,1-5.687-1.764Q1369.271,672.413,1369.271,668.72Zm11.406-.1v-2.637a3.621,3.621,0,0,0-.709-2.489,3.826,3.826,0,0,0-2.819-.775,3.955,3.955,0,0,0-2.852.775,3.512,3.512,0,0,0-.742,2.489v2.637a3.511,3.511,0,0,0,.742,2.489,3.954,3.954,0,0,0,2.852.775,3.875,3.875,0,0,0,2.835-.758A3.673,3.673,0,0,0,1380.677,668.622Z" transform="translate(-1308.449 -652.468)" fill="#231f20"/>
      <path id="Path_4736" data-name="Path 4736" d="M1536.191,713.755a10.734,10.734,0,0,1-.363,2.967h-10.219v.692a2.648,2.648,0,0,0,.758,2.126,3.811,3.811,0,0,0,2.473.643,4.994,4.994,0,0,0,2.588-.461,1.6,1.6,0,0,0,.676-1.417h4.088a5.381,5.381,0,0,1-1.632,4.17q-1.632,1.5-5.72,1.5-3.857,0-5.7-1.714t-1.846-5.505v-2.637q0-7.418,7.681-7.417Q1536.191,706.7,1536.191,713.755Zm-10.583-.89v.363h6.495v-.363q0-2.439-3.264-2.44Q1525.608,710.425,1525.608,712.865Z" transform="translate(-1443.094 -700.502)" fill="#231f20"/>
    </g>
    <g id="Group_2362" data-name="Group 2362" transform="translate(418.375 599.215)">
      <path id="Path_4737" data-name="Path 4737" d="M564.9,794.9a4.319,4.319,0,0,0,.133-.695,1.642,1.642,0,0,0-.084-.712c-.062-.213-.213-.581-.266-.714s-.32-.767-.365-.878-.125-.264-.125-.264a.933.933,0,0,1,.32-.1c.129,0,.247,0,.336.31.047.164.187.523.248.66s.16.283.238.283.178-.117.295-.416.23-.607.262-.66a.227.227,0,0,1,.2-.1,3.182,3.182,0,0,1,.361.047s-.453,1.114-.517,1.269-.275.767-.3.913a1.607,1.607,0,0,0,.031.576c.043.2.137.486.137.486Z" transform="translate(-561.094 -786.128)" fill="#fff"/>
      <path id="Path_4738" data-name="Path 4738" d="M572.085,785.837a.949.949,0,0,0-.206.494,1.118,1.118,0,0,0,.086.558.771.771,0,0,0,.226-.557A1.026,1.026,0,0,0,572.085,785.837Z" transform="translate(-567.891 -781.086)" fill="#fff"/>
      <path id="Path_4739" data-name="Path 4739" d="M575.23,784.29a.546.546,0,0,0-.081.24.552.552,0,0,0,.081.257.406.406,0,0,0,.09-.248A.51.51,0,0,0,575.23,784.29Z" transform="translate(-570.794 -779.716)" fill="#fff"/>
      <path id="Path_4740" data-name="Path 4740" d="M578.1,785.574a.584.584,0,0,1,.1.315.55.55,0,0,1-.085.366.5.5,0,0,1-.121-.34A.54.54,0,0,1,578.1,785.574Z" transform="translate(-573.32 -780.853)" fill="#fff"/>
      <path id="Path_4741" data-name="Path 4741" d="M581.9,786.216a.5.5,0,0,1,.167.257.7.7,0,0,1,.009.326.5.5,0,0,1-.182-.283A.483.483,0,0,1,581.9,786.216Z" transform="translate(-576.752 -781.421)" fill="#fff"/>
      <path id="Path_4742" data-name="Path 4742" d="M585.272,787.041a1.281,1.281,0,0,1,.583.558,1.81,1.81,0,0,1,.211.713,1.452,1.452,0,0,1-.552-.5A1.844,1.844,0,0,1,585.272,787.041Z" transform="translate(-579.76 -782.152)" fill="#fff"/>
      <path id="Path_4743" data-name="Path 4743" d="M591.358,790.72a.8.8,0,0,1,.458.144.783.783,0,0,1,.274.339.677.677,0,0,1-.48-.136A.787.787,0,0,1,591.358,790.72Z" transform="translate(-585.15 -785.411)" fill="#fff"/>
      <path id="Path_4744" data-name="Path 4744" d="M598.927,791.3a.6.6,0,0,1,.426.1.578.578,0,0,1,.246.349.743.743,0,0,1-.43-.122A.666.666,0,0,1,598.927,791.3Z" transform="translate(-591.854 -785.92)" fill="#fff"/>
      <path id="Path_4745" data-name="Path 4745" d="M602,788.595a.465.465,0,0,1,.342-.006.5.5,0,0,1,.274.246.776.776,0,0,1-.388-.019A.332.332,0,0,1,602,788.595Z" transform="translate(-594.577 -783.496)" fill="#fff"/>
      <path id="Path_4746" data-name="Path 4746" d="M603.743,785.991a.48.48,0,0,1,.282-.022.4.4,0,0,1,.211.162.434.434,0,0,1-.271.024A.329.329,0,0,1,603.743,785.991Z" transform="translate(-596.12 -781.191)" fill="#fff"/>
      <path id="Path_4747" data-name="Path 4747" d="M597.109,786.091a.41.41,0,0,1,.284-.029.3.3,0,0,1,.218.165.375.375,0,0,1-.294.021A.272.272,0,0,1,597.109,786.091Z" transform="translate(-590.244 -781.274)" fill="#fff"/>
      <path id="Path_4748" data-name="Path 4748" d="M586.7,783.543a1.661,1.661,0,0,1,.836.207,1.023,1.023,0,0,1,.473.5,1,1,0,0,1-.776-.151A1.463,1.463,0,0,1,586.7,783.543Z" transform="translate(-581.021 -779.053)" fill="#fff"/>
      <path id="Path_4749" data-name="Path 4749" d="M594.163,781.311a1.037,1.037,0,0,1,.6.019.785.785,0,0,1,.382.3.835.835,0,0,1-.542.009A.718.718,0,0,1,594.163,781.311Z" transform="translate(-587.635 -777.045)" fill="#fff"/>
      <g id="Group_2357" data-name="Group 2357" transform="translate(7.342 3.38)">
        <path id="Path_4750" data-name="Path 4750" d="M601.7,776.267a.207.207,0,0,0-.143-.059c-.1,0-.268.078-.268.367a.413.413,0,1,0,.823.021c0-.3-.131-.362-.193-.376A.252.252,0,0,0,601.7,776.267Z" transform="translate(-601.284 -775.938)" fill="#fff"/>
        <path id="Path_4751" data-name="Path 4751" d="M605.052,774.087a.283.283,0,0,0,.163-.076.194.194,0,0,0,.051-.172.239.239,0,0,0-.169.073A.287.287,0,0,0,605.052,774.087Z" transform="translate(-604.621 -773.839)" fill="#fff"/>
      </g>
      <g id="Group_2358" data-name="Group 2358" transform="translate(2.141 4.824)">
        <path id="Path_4752" data-name="Path 4752" d="M556.187,788.906a.207.207,0,0,0-.143-.059c-.1,0-.268.078-.268.367a.413.413,0,1,0,.823.02c0-.3-.131-.362-.193-.376A.252.252,0,0,0,556.187,788.906Z" transform="translate(-555.776 -788.577)" fill="#fff"/>
        <path id="Path_4753" data-name="Path 4753" d="M559.544,786.726a.285.285,0,0,0,.164-.076.194.194,0,0,0,.051-.172.238.238,0,0,0-.169.073A.286.286,0,0,0,559.544,786.726Z" transform="translate(-559.113 -786.478)" fill="#fff"/>
      </g>
      <g id="Group_2359" data-name="Group 2359" transform="translate(0 3.1)">
        <path id="Path_4754" data-name="Path 4754" d="M537.449,773.82a.208.208,0,0,0-.144-.059c-.1,0-.268.078-.268.368a.413.413,0,1,0,.823.02c0-.3-.131-.362-.193-.376A.251.251,0,0,0,537.449,773.82Z" transform="translate(-537.038 -773.49)" fill="#fff"/>
        <path id="Path_4755" data-name="Path 4755" d="M540.806,771.64a.285.285,0,0,0,.163-.076.194.194,0,0,0,.051-.172.238.238,0,0,0-.169.073A.287.287,0,0,0,540.806,771.64Z" transform="translate(-540.375 -771.392)" fill="#fff"/>
      </g>
      <g id="Group_2360" data-name="Group 2360" transform="translate(1.164 1.534)">
        <path id="Path_4756" data-name="Path 4756" d="M547.635,760.113a.208.208,0,0,0-.143-.058c-.1,0-.268.078-.268.367a.413.413,0,1,0,.823.021c0-.3-.131-.362-.193-.376A.251.251,0,0,0,547.635,760.113Z" transform="translate(-547.224 -759.784)" fill="#fff"/>
        <path id="Path_4757" data-name="Path 4757" d="M550.992,757.933a.285.285,0,0,0,.163-.076.194.194,0,0,0,.051-.172.239.239,0,0,0-.169.073A.287.287,0,0,0,550.992,757.933Z" transform="translate(-550.561 -757.685)" fill="#fff"/>
      </g>
      <g id="Group_2361" data-name="Group 2361" transform="translate(3.399 0.815)">
        <path id="Path_4758" data-name="Path 4758" d="M567.187,753.822a.207.207,0,0,0-.143-.058c-.1,0-.268.078-.268.367a.413.413,0,1,0,.823.02c0-.3-.131-.362-.193-.376A.252.252,0,0,0,567.187,753.822Z" transform="translate(-566.776 -753.493)" fill="#fff"/>
        <path id="Path_4759" data-name="Path 4759" d="M570.544,751.642a.286.286,0,0,0,.163-.076.194.194,0,0,0,.051-.172.238.238,0,0,0-.169.073A.286.286,0,0,0,570.544,751.642Z" transform="translate(-570.113 -751.394)" fill="#fff"/>
      </g>
      <path id="Path_4760" data-name="Path 4760" d="M579.551,777.83a.974.974,0,0,0,.251-.009.467.467,0,0,0,.423-.3.983.983,0,0,0,.03-.459c0-.06.016-.081,0-.109a.065.065,0,0,0-.062-.018,1.687,1.687,0,0,0-.346.01.556.556,0,0,0-.31.26,1.152,1.152,0,0,0-.04.509C579.5,777.782,579.51,777.81,579.551,777.83Z" transform="translate(-574.634 -773.195)" fill="#fff"/>
      <path id="Path_4761" data-name="Path 4761" d="M554.12,766.152a.985.985,0,0,0,.251-.009.467.467,0,0,0,.423-.3.983.983,0,0,0,.03-.459c0-.06.016-.081,0-.109a.064.064,0,0,0-.061-.017,1.683,1.683,0,0,0-.346.01.555.555,0,0,0-.31.26,1.152,1.152,0,0,0-.04.509C554.067,766.1,554.079,766.132,554.12,766.152Z" transform="translate(-552.109 -762.852)" fill="#fff"/>
      <path id="Path_4762" data-name="Path 4762" d="M540.214,788.911a.977.977,0,0,0,.251-.009.468.468,0,0,0,.423-.3.981.981,0,0,0,.029-.46c0-.06.017-.081,0-.109a.065.065,0,0,0-.061-.018,1.686,1.686,0,0,0-.346.01.555.555,0,0,0-.31.26,1.149,1.149,0,0,0-.04.509C540.16,788.863,540.173,788.891,540.214,788.911Z" transform="translate(-539.792 -783.01)" fill="#fff"/>
      <path id="Path_4763" data-name="Path 4763" d="M588.041,780.741a.747.747,0,0,1,.282.009.424.424,0,0,1,.183.181.745.745,0,0,1-.278-.009A.335.335,0,0,1,588.041,780.741Z" transform="translate(-582.212 -776.563)" fill="#fff"/>
      <path id="Path_4764" data-name="Path 4764" d="M588.041,776.322a1.374,1.374,0,0,1,.7-.241,1.437,1.437,0,0,1,.723.224,1.355,1.355,0,0,1-.7.216A1.324,1.324,0,0,1,588.041,776.322Z" transform="translate(-582.212 -772.445)" fill="#fff"/>
      <path id="Path_4765" data-name="Path 4765" d="M591.307,773.092a.419.419,0,0,1,.207-.158.569.569,0,0,1,.3.007.413.413,0,0,1-.222.195A.405.405,0,0,1,591.307,773.092Z" transform="translate(-585.105 -769.642)" fill="#fff"/>
      <path id="Path_4766" data-name="Path 4766" d="M582.47,772.759a.806.806,0,0,1,.385-.253,1.065,1.065,0,0,1,.572.038,1.151,1.151,0,0,1-.424.272A.8.8,0,0,1,582.47,772.759Z" transform="translate(-577.278 -769.255)" fill="#fff"/>
      <circle id="Ellipse_416" data-name="Ellipse 416" cx="0.408" cy="0.408" r="0.408" transform="translate(6.853 2.592)" fill="#fff"/>
      <circle id="Ellipse_417" data-name="Ellipse 417" cx="0.408" cy="0.408" r="0.408" transform="translate(5.228 1.528)" fill="#fff"/>
      <circle id="Ellipse_418" data-name="Ellipse 418" cx="0.408" cy="0.408" r="0.408" transform="translate(3.297 2.709)" fill="#fff"/>
      <path id="Path_4767" data-name="Path 4767" d="M586.581,766.937a.984.984,0,0,1,.451-.421,1.46,1.46,0,0,1,.777-.129,1.624,1.624,0,0,1-.541.451A1.67,1.67,0,0,1,586.581,766.937Z" transform="translate(-580.919 -763.851)" fill="#fff"/>
      <path id="Path_4768" data-name="Path 4768" d="M594.855,761.366a.713.713,0,0,1,.263-.291,1.313,1.313,0,0,1,.512-.075,1.052,1.052,0,0,1-.335.343A.863.863,0,0,1,594.855,761.366Z" transform="translate(-588.247 -759.087)" fill="#fff"/>
      <path id="Path_4769" data-name="Path 4769" d="M590.564,758.09a.974.974,0,0,1,.23-.473.9.9,0,0,1,.563-.286,1.049,1.049,0,0,1-.26.515A.942.942,0,0,1,590.564,758.09Z" transform="translate(-584.447 -755.838)" fill="#fff"/>
      <path id="Path_4770" data-name="Path 4770" d="M590.829,754.486a.547.547,0,0,1,.037-.351.5.5,0,0,1,.276-.249.577.577,0,0,1-.047.373A.609.609,0,0,1,590.829,754.486Z" transform="translate(-584.67 -752.786)" fill="#fff"/>
      <path id="Path_4771" data-name="Path 4771" d="M587.285,753.012a.379.379,0,0,1,.168-.22.484.484,0,0,1,.307-.069.579.579,0,0,1-.2.224A.49.49,0,0,1,587.285,753.012Z" transform="translate(-581.543 -751.754)" fill="#fff"/>
      <path id="Path_4772" data-name="Path 4772" d="M581.816,749.728a1.543,1.543,0,0,1,.067-.6,1.509,1.509,0,0,1,.419-.495,1.123,1.123,0,0,1-.078.64A1.178,1.178,0,0,1,581.816,749.728Z" transform="translate(-576.695 -748.136)" fill="#fff"/>
      <path id="Path_4773" data-name="Path 4773" d="M581.45,747.066a.611.611,0,0,1-.045-.258.706.706,0,0,1,.135-.274.622.622,0,0,1,.037.312A.43.43,0,0,1,581.45,747.066Z" transform="translate(-576.333 -746.275)" fill="#fff"/>
      <path id="Path_4774" data-name="Path 4774" d="M576.327,751.812a2.777,2.777,0,0,1-.016.845,1.514,1.514,0,0,1-.47.773,2.228,2.228,0,0,1,.021-.936A1.532,1.532,0,0,1,576.327,751.812Z" transform="translate(-571.37 -750.949)" fill="#fff"/>
      <path id="Path_4775" data-name="Path 4775" d="M574.411,745.066a1.346,1.346,0,0,1,.088.6,1.614,1.614,0,0,1-.31.576,1.8,1.8,0,0,1-.1-.566A1.091,1.091,0,0,1,574.411,745.066Z" transform="translate(-569.851 -744.974)" fill="#fff"/>
      <path id="Path_4776" data-name="Path 4776" d="M566,745.31a.79.79,0,0,0,.207-.547,1.3,1.3,0,0,0-.158-.5.809.809,0,0,0-.2.5A1.009,1.009,0,0,0,566,745.31Z" transform="translate(-562.556 -744.264)" fill="#fff"/>
      <path id="Path_4777" data-name="Path 4777" d="M561.9,748.209a1.262,1.262,0,0,1,.386.535,1.2,1.2,0,0,1-.043.64,1.408,1.408,0,0,1-.343-.492A1.684,1.684,0,0,1,561.9,748.209Z" transform="translate(-559.029 -747.758)" fill="#fff"/>
      <path id="Path_4778" data-name="Path 4778" d="M558.817,752.785a.493.493,0,0,1,.228.184.517.517,0,0,1,.053.318.552.552,0,0,1-.23-.224A.506.506,0,0,1,558.817,752.785Z" transform="translate(-556.325 -751.811)" fill="#fff"/>
      <path id="Path_4779" data-name="Path 4779" d="M556.923,756.252a1.583,1.583,0,0,1,1.058,1.265,2.143,2.143,0,0,1-.728-.5A1.785,1.785,0,0,1,556.923,756.252Z" transform="translate(-554.65 -754.882)" fill="#fff"/>
      <path id="Path_4780" data-name="Path 4780" d="M566.177,760.709a.519.519,0,0,1,.232.3.642.642,0,0,1,0,.418.556.556,0,0,1-.232-.357A.647.647,0,0,1,566.177,760.709Z" transform="translate(-562.825 -758.83)" fill="#fff"/>
      <path id="Path_4781" data-name="Path 4781" d="M572.444,760.845a.63.63,0,0,1,.178.429.233.233,0,1,1-.312-.016A.644.644,0,0,1,572.444,760.845Z" transform="translate(-568.278 -758.95)" fill="#fff"/>
      <path id="Path_4782" data-name="Path 4782" d="M573.842,768.951a.623.623,0,0,1-.021-.408.673.673,0,0,1,.219-.355.811.811,0,0,1,.027.431A.528.528,0,0,1,573.842,768.951Z" transform="translate(-569.597 -765.454)" fill="#fff"/>
      <path id="Path_4783" data-name="Path 4783" d="M576.938,767.108a.529.529,0,0,1,.018.264.329.329,0,0,1-.16.2.555.555,0,0,1,0-.277A.344.344,0,0,1,576.938,767.108Z" transform="translate(-572.236 -764.497)" fill="#fff"/>
      <path id="Path_4784" data-name="Path 4784" d="M577.572,769.486a.99.99,0,0,1,.021.584.683.683,0,0,1-.318.418,1.008,1.008,0,0,1,0-.57A.9.9,0,0,1,577.572,769.486Z" transform="translate(-572.639 -766.604)" fill="#fff"/>
      <path id="Path_4785" data-name="Path 4785" d="M582.47,766.655a.809.809,0,0,1,.156-.449.58.58,0,0,1,.4-.243.685.685,0,0,1-.17.467A.733.733,0,0,1,582.47,766.655Z" transform="translate(-577.278 -763.484)" fill="#fff"/>
      <path id="Path_4786" data-name="Path 4786" d="M581.239,765.131a.517.517,0,0,1-.033.3.362.362,0,0,1-.176.189.455.455,0,0,1,.025-.3A.5.5,0,0,1,581.239,765.131Z" transform="translate(-575.99 -762.746)" fill="#fff"/>
      <path id="Path_4787" data-name="Path 4787" d="M579.321,761.784a.555.555,0,0,1,.014.359.4.4,0,0,1-.209.249.493.493,0,0,1-.014-.323A.649.649,0,0,1,579.321,761.784Z" transform="translate(-574.285 -759.782)" fill="#fff"/>
      <path id="Path_4788" data-name="Path 4788" d="M576.542,779.489a.473.473,0,0,1,.086.25.486.486,0,0,1-.07.247.36.36,0,0,1-.1-.248A.375.375,0,0,1,576.542,779.489Z" transform="translate(-571.955 -775.463)" fill="#fff"/>
      <path id="Path_4789" data-name="Path 4789" d="M573.178,777.118a.663.663,0,0,1,.056.453.547.547,0,0,1-.216.342.584.584,0,0,1-.055-.419A.6.6,0,0,1,573.178,777.118Z" transform="translate(-568.846 -773.363)" fill="#fff"/>
      <path id="Path_4790" data-name="Path 4790" d="M570.005,783.752a.779.779,0,0,1,.006.386c-.05.217-.2.249-.2.249a.5.5,0,0,1-.017-.317A.549.549,0,0,1,570.005,783.752Z" transform="translate(-566.041 -779.239)" fill="#fff"/>
      <path id="Path_4791" data-name="Path 4791" d="M564.122,787.76a.417.417,0,0,1-.144.224.551.551,0,0,1-.28.1.467.467,0,0,1,.152-.242A.334.334,0,0,1,564.122,787.76Z" transform="translate(-560.652 -782.786)" fill="#fff"/>
      <path id="Path_4792" data-name="Path 4792" d="M564.992,780.877a.776.776,0,0,1-.217.483.671.671,0,0,1-.475.2,1.1,1.1,0,0,1,.224-.467A.594.594,0,0,1,564.992,780.877Z" transform="translate(-561.184 -776.693)" fill="#fff"/>
      <path id="Path_4793" data-name="Path 4793" d="M562.331,782.312a.4.4,0,0,1-.139.235.45.45,0,0,1-.288.092s-.014-.117.139-.245A.4.4,0,0,1,562.331,782.312Z" transform="translate(-559.062 -777.961)" fill="#fff"/>
      <path id="Path_4794" data-name="Path 4794" d="M568.958,775.742a.566.566,0,0,1-.225.316.211.211,0,1,1-.173-.224A.545.545,0,0,1,568.958,775.742Z" transform="translate(-564.772 -772.139)" fill="#fff"/>
      <path id="Path_4795" data-name="Path 4795" d="M560.115,778.115a.954.954,0,0,1-.425.292,1.078,1.078,0,0,1-.574-.05.777.777,0,0,1,.439-.317A.852.852,0,0,1,560.115,778.115Z" transform="translate(-556.593 -774.162)" fill="#fff"/>
      <path id="Path_4796" data-name="Path 4796" d="M560.005,773.778a.714.714,0,0,1,.447.025.55.55,0,0,1,.286.286.579.579,0,0,1-.46,0A.466.466,0,0,1,560.005,773.778Z" transform="translate(-557.38 -770.383)" fill="#fff"/>
      <path id="Path_4797" data-name="Path 4797" d="M562.926,768.992a.543.543,0,0,1,.17.256.558.558,0,0,1-.014.288.417.417,0,0,1-.174-.217A.473.473,0,0,1,562.926,768.992Z" transform="translate(-559.935 -766.166)" fill="#fff"/>
      <path id="Path_4798" data-name="Path 4798" d="M547.343,775.517a1.637,1.637,0,0,1,.654-.372,1.088,1.088,0,0,1,.876.13,1.436,1.436,0,0,1-.683.355A1.226,1.226,0,0,1,547.343,775.517Z" transform="translate(-546.165 -771.584)" fill="#fff"/>
      <path id="Path_4799" data-name="Path 4799" d="M549.529,783.944a1.551,1.551,0,0,1,.556-.437,1.477,1.477,0,0,1,.773-.123,1.269,1.269,0,0,1-.57.492A1.107,1.107,0,0,1,549.529,783.944Z" transform="translate(-548.101 -778.906)" fill="#fff"/>
      <path id="Path_4800" data-name="Path 4800" d="M553.491,780.832a.384.384,0,0,1,.234-.158.354.354,0,0,1,.273.051.294.294,0,0,1-.219.166A.321.321,0,0,1,553.491,780.832Z" transform="translate(-551.611 -776.505)" fill="#fff"/>
      <path id="Path_4801" data-name="Path 4801" d="M538,782.565a1.456,1.456,0,0,1,.576-.429,1.76,1.76,0,0,1,.937-.016,1.411,1.411,0,0,1-.662.457A1.312,1.312,0,0,1,538,782.565Z" transform="translate(-537.893 -777.741)" fill="#fff"/>
      <path id="Path_4802" data-name="Path 4802" d="M545.158,775a.443.443,0,0,1,.219-.152.637.637,0,0,1,.324.016.443.443,0,0,1-.246.175A.4.4,0,0,1,545.158,775Z" transform="translate(-544.23 -771.337)" fill="#fff"/>
      <path id="Path_4803" data-name="Path 4803" d="M543.74,769.346a.755.755,0,0,1,.558-.066.7.7,0,0,1,.422.333.761.761,0,0,1-.547.074A.605.605,0,0,1,543.74,769.346Z" transform="translate(-542.974 -766.402)" fill="#fff"/>
      <path id="Path_4804" data-name="Path 4804" d="M540.205,764.692a.866.866,0,0,1,.482,0,.241.241,0,1,1-.133.295A.637.637,0,0,1,540.205,764.692Z" transform="translate(-539.843 -762.327)" fill="#fff"/>
      <path id="Path_4805" data-name="Path 4805" d="M555.071,758.73a.582.582,0,0,1,.215.219.818.818,0,0,1,.051.283.491.491,0,0,1-.213-.2A.583.583,0,0,1,555.071,758.73Z" transform="translate(-553.008 -757.077)" fill="#fff"/>
      <path id="Path_4806" data-name="Path 4806" d="M553.423,753.954a.409.409,0,0,1,.2.153.351.351,0,0,1,.051.257.292.292,0,0,1-.183-.16A.53.53,0,0,1,553.423,753.954Z" transform="translate(-551.551 -752.847)" fill="#fff"/>
      <path id="Path_4807" data-name="Path 4807" d="M551.72,794.793a.491.491,0,0,1-.115.313.607.607,0,0,1-.269.158.546.546,0,0,1,.114-.309A.52.52,0,0,1,551.72,794.793Z" transform="translate(-549.701 -789.018)" fill="#fff"/>
      <path id="Path_4808" data-name="Path 4808" d="M547.889,790.451a.849.849,0,0,1-.313.451.784.784,0,0,1-.559.158.814.814,0,0,1,.309-.455A.892.892,0,0,1,547.889,790.451Z" transform="translate(-545.877 -785.171)" fill="#fff"/>
    </g>
  </g>
</svg>
